<?xml version="1.0" encoding="UTF-8" standalone="no"?>
<!DOCTYPE svg PUBLIC "-//W3C//DTD SVG 1.1//EN" "http://www.w3.org/Graphics/SVG/1.1/DTD/svg11.dtd">
<svg width="100%" height="100%" viewBox="0 0 545 153" version="1.1" xmlns="http://www.w3.org/2000/svg" xmlns:xlink="http://www.w3.org/1999/xlink" xml:space="preserve" xmlns:serif="http://www.serif.com/" style="fill-rule:evenodd;clip-rule:evenodd;stroke-linejoin:round;stroke-miterlimit:2;">
    <path d="M109.522,50.318L109.455,50.278L109.299,50.231C109.362,50.284 109.44,50.314 109.522,50.318Z" style="fill:rgb(13,12,34);fill-rule:nonzero;"/>
    <path d="M110.507,57.313L110.432,57.334L110.507,57.313Z" style="fill:rgb(13,12,34);fill-rule:nonzero;"/>
    <path d="M109.549,50.306C109.54,50.305 109.532,50.303 109.524,50.3C109.523,50.306 109.523,50.311 109.524,50.317C109.533,50.316 109.541,50.312 109.549,50.306Z" style="fill:rgb(13,12,34);fill-rule:nonzero;"/>
    <path d="M109.523,50.321L109.536,50.321L109.536,50.313L109.523,50.321Z" style="fill:rgb(13,12,34);fill-rule:nonzero;"/>
    <path d="M110.447,57.301L110.56,57.236L110.602,57.212L110.64,57.172C110.569,57.203 110.503,57.246 110.447,57.301Z" style="fill:rgb(13,12,34);fill-rule:nonzero;"/>
    <path d="M109.715,50.471L109.604,50.366L109.529,50.325C109.57,50.396 109.636,50.449 109.715,50.471Z" style="fill:rgb(13,12,34);fill-rule:nonzero;"/>
    <path d="M81.88,118.353C81.792,118.391 81.714,118.451 81.655,118.527L81.725,118.482C81.772,118.439 81.839,118.387 81.88,118.353Z" style="fill:rgb(13,12,34);fill-rule:nonzero;"/>
    <path d="M98.046,115.173C98.046,115.073 97.997,115.091 98.009,115.447C98.009,115.418 98.021,115.389 98.026,115.361C98.032,115.298 98.038,115.236 98.046,115.173Z" style="fill:rgb(13,12,34);fill-rule:nonzero;"/>
    <path d="M96.376,118.353C96.288,118.391 96.21,118.451 96.151,118.527L96.221,118.482C96.268,118.439 96.335,118.387 96.376,118.353Z" style="fill:rgb(13,12,34);fill-rule:nonzero;"/>
    <path d="M70.489,119.11C70.422,119.052 70.339,119.013 70.251,118.999C70.323,119.034 70.394,119.068 70.441,119.094L70.489,119.11Z" style="fill:rgb(13,12,34);fill-rule:nonzero;"/>
    <path d="M67.93,116.657C67.92,116.553 67.888,116.453 67.837,116.362C67.873,116.456 67.903,116.553 67.928,116.652L67.93,116.657Z" style="fill:rgb(13,12,34);fill-rule:nonzero;"/>
    <path d="M85.137,72.774C81.62,74.279 77.628,75.987 72.455,75.987C70.291,75.982 68.137,75.685 66.053,75.104L69.631,111.838C69.757,113.373 70.457,114.805 71.59,115.848C72.723,116.892 74.208,117.471 75.748,117.47C75.748,117.47 80.821,117.734 82.514,117.734C84.336,117.734 89.799,117.47 89.799,117.47C91.339,117.47 92.823,116.891 93.956,115.848C95.089,114.804 95.789,113.373 95.915,111.838L99.747,71.246C98.035,70.661 96.306,70.272 94.358,70.272C90.988,70.271 88.273,71.431 85.137,72.774Z" style="fill:white;fill-rule:nonzero;"/>
    <path d="M54.984,57.102L55.045,57.159L55.085,57.182C55.054,57.152 55.021,57.125 54.984,57.102Z" style="fill:rgb(13,12,34);fill-rule:nonzero;"/>
    <path d="M116.299,53.712L115.761,50.994C115.277,48.556 114.18,46.252 111.677,45.371C110.875,45.089 109.964,44.968 109.349,44.384C108.734,43.8 108.552,42.894 108.41,42.054C108.147,40.511 107.899,38.967 107.629,37.427C107.396,36.103 107.211,34.616 106.604,33.402C105.814,31.771 104.174,30.817 102.543,30.186C101.707,29.874 100.854,29.61 99.988,29.395C95.914,28.321 91.63,27.925 87.438,27.7C82.407,27.423 77.362,27.506 72.343,27.95C68.607,28.29 64.672,28.701 61.122,29.994C59.825,30.467 58.487,31.034 57.501,32.037C56.29,33.268 55.895,35.173 56.779,36.709C57.407,37.8 58.472,38.571 59.601,39.08C61.071,39.737 62.607,40.237 64.182,40.572C68.569,41.541 73.112,41.922 77.594,42.084C82.561,42.284 87.536,42.122 92.48,41.598C93.702,41.464 94.922,41.302 96.141,41.114C97.575,40.894 98.496,39.019 98.073,37.712C97.567,36.149 96.208,35.543 94.67,35.779C94.444,35.815 94.219,35.848 93.992,35.881L93.829,35.904C93.308,35.97 92.787,36.032 92.266,36.089C91.19,36.205 90.112,36.3 89.031,36.373C86.61,36.542 84.182,36.62 81.755,36.624C79.371,36.624 76.985,36.556 74.606,36.4C73.521,36.329 72.438,36.238 71.358,36.128C70.866,36.077 70.376,36.023 69.886,35.962L69.42,35.903L69.319,35.889L68.835,35.819C67.847,35.67 66.859,35.499 65.882,35.292C65.783,35.27 65.695,35.215 65.632,35.136C65.568,35.058 65.534,34.959 65.534,34.858C65.534,34.757 65.568,34.659 65.632,34.581C65.695,34.502 65.783,34.447 65.882,34.425L65.9,34.425C66.747,34.245 67.601,34.09 68.457,33.956C68.742,33.911 69.029,33.867 69.316,33.824L69.324,33.824C69.86,33.789 70.399,33.693 70.932,33.629C75.574,33.147 80.243,32.982 84.908,33.137C87.172,33.203 89.435,33.336 91.689,33.565C92.174,33.615 92.656,33.668 93.138,33.727C93.323,33.749 93.509,33.776 93.694,33.798L94.068,33.852C95.159,34.014 96.244,34.212 97.323,34.444C98.923,34.791 100.976,34.905 101.688,36.657C101.914,37.213 102.017,37.83 102.142,38.414L102.302,39.158C102.306,39.172 102.309,39.185 102.311,39.199C102.688,40.955 103.065,42.712 103.442,44.468C103.47,44.598 103.471,44.732 103.444,44.862C103.418,44.992 103.365,45.115 103.289,45.224C103.213,45.333 103.115,45.424 103.002,45.494C102.889,45.563 102.762,45.608 102.631,45.626L102.62,45.626L102.39,45.658L102.162,45.688C101.44,45.782 100.717,45.87 99.994,45.952C98.568,46.114 97.141,46.255 95.711,46.373C92.87,46.609 90.023,46.764 87.171,46.838C85.717,46.877 84.264,46.895 82.812,46.892C77.03,46.888 71.253,46.552 65.51,45.886C64.888,45.812 64.267,45.733 63.645,45.653C64.127,45.715 63.294,45.605 63.126,45.581C62.731,45.526 62.335,45.469 61.94,45.409C60.614,45.21 59.295,44.965 57.971,44.75C56.371,44.487 54.84,44.619 53.392,45.409C52.204,46.059 51.242,47.056 50.635,48.267C50.011,49.558 49.825,50.964 49.545,52.351C49.266,53.738 48.832,55.231 48.996,56.655C49.35,59.728 51.499,62.226 54.59,62.784C57.497,63.311 60.42,63.738 63.351,64.102C74.865,65.512 86.497,65.681 98.047,64.605C98.987,64.517 99.927,64.421 100.864,64.318C101.157,64.286 101.454,64.319 101.732,64.417C102.01,64.514 102.263,64.672 102.472,64.879C102.681,65.087 102.842,65.339 102.941,65.617C103.04,65.894 103.076,66.19 103.046,66.483L102.753,69.326C102.164,75.071 101.575,80.815 100.986,86.558C100.371,92.59 99.752,98.621 99.129,104.651C98.954,106.35 98.778,108.048 98.603,109.746C98.434,111.417 98.41,113.142 98.093,114.794C97.592,117.391 95.834,118.987 93.267,119.57C90.916,120.105 88.515,120.386 86.104,120.408C83.431,120.422 80.759,120.304 78.087,120.318C75.233,120.334 71.738,120.071 69.536,117.947C67.601,116.082 67.333,113.161 67.07,110.636C66.719,107.293 66.37,103.95 66.025,100.607L64.089,82.021L62.836,69.995C62.815,69.796 62.794,69.6 62.774,69.4C62.624,67.965 61.608,66.561 60.008,66.634C58.638,66.694 57.081,67.859 57.241,69.4L58.17,78.316L60.091,96.758C60.638,101.997 61.184,107.236 61.728,112.476C61.834,113.48 61.932,114.487 62.043,115.49C62.645,120.976 66.834,123.932 72.022,124.764C75.052,125.252 78.155,125.352 81.23,125.402C85.171,125.465 89.152,125.617 93.029,124.903C98.774,123.849 103.084,120.013 103.699,114.062C103.875,112.345 104.051,110.626 104.226,108.908C104.81,103.224 105.393,97.54 105.976,91.855L107.88,73.281L108.754,64.768C108.797,64.346 108.976,63.949 109.262,63.636C109.549,63.323 109.929,63.111 110.345,63.031C111.988,62.711 113.558,62.164 114.727,60.914C116.587,58.923 116.957,56.328 116.299,53.712ZM54.505,55.548C54.53,55.536 54.484,55.751 54.464,55.851C54.46,55.7 54.468,55.565 54.505,55.548ZM54.665,56.781C54.678,56.772 54.717,56.825 54.758,56.888C54.696,56.83 54.657,56.787 54.663,56.781L54.665,56.781ZM54.821,56.988C54.878,57.084 54.908,57.145 54.821,56.988ZM55.135,57.244L55.144,57.244C55.144,57.253 55.159,57.262 55.164,57.271C55.155,57.261 55.145,57.252 55.135,57.244ZM110.269,56.862C109.679,57.423 108.789,57.684 107.911,57.814C98.057,59.276 88.06,60.017 78.098,59.69C70.969,59.446 63.915,58.655 56.857,57.657C56.165,57.56 55.416,57.433 54.94,56.924C54.044,55.962 54.484,54.025 54.717,52.864C54.931,51.799 55.339,50.38 56.605,50.229C58.581,49.997 60.876,50.831 62.831,51.127C65.184,51.487 67.547,51.774 69.918,51.99C80.037,52.912 90.327,52.769 100.402,51.42C102.238,51.173 104.068,50.886 105.891,50.56C107.516,50.268 109.316,49.722 110.298,51.404C110.971,52.55 111.06,54.083 110.956,55.378C110.924,55.943 110.678,56.473 110.267,56.862L110.269,56.862Z" style="fill:rgb(13,12,34);fill-rule:nonzero;"/>
    <g transform="matrix(1,0,0,1,-61.2589,-6.60318)">
        <text x="190.009px" y="96.079px" style="font-family:'AvenirNext-Bold', 'Avenir Next', sans-serif;font-weight:700;font-size:45px;">K<tspan x="221.464px 246.934px 261.964px 278.344px " y="96.079px 96.079px 96.079px 96.079px ">affe</tspan>e spendier<tspan x="535.339px 562.159px " y="96.079px 96.079px ">en</tspan></text>
    </g>
</svg>
